<svg xmlns="http://www.w3.org/2000/svg" xmlns:xlink="http://www.w3.org/1999/xlink" width="296" zoomAndPan="magnify" viewBox="0 0 222 72" height="96" preserveAspectRatio="xMidYMid meet" version="1.0"><path stroke-linecap="butt" transform="matrix(0.796094, 0, 0, 0.796094, -2.310375, 0.519733)" fill="none" stroke-linejoin="miter" d="M 48.358452 9.67099 L 48.358452 54.729855 L 67.745098 54.729855 L 67.745098 66.000705 L 35.522342 66.000705 L 35.522342 9.67099 Z M 69.437934 11.437427 C 70.851083 10.029184 72.534105 9.322609 74.491906 9.322609 C 76.454614 9.322609 78.14745 10.029184 79.555693 11.437427 C 80.968842 12.850576 81.675417 14.538505 81.675417 16.50612 C 81.675417 18.463921 80.968842 20.146943 79.555693 21.560092 C 78.14745 22.958522 76.454614 23.66019 74.491906 23.66019 C 72.534105 23.66019 70.851083 22.958522 69.437934 21.560092 C 68.029691 20.146943 67.323116 18.463921 67.323116 16.50612 C 67.323116 14.538505 68.029691 12.850576 69.437934 11.437427 Z M 68.28975 30.976183 L 68.28975 66.000705 L 80.375123 66.000705 L 80.375123 30.976183 Z M 91.96982 30.976183 L 100.502692 50.02917 L 109.040471 30.976183 L 123.373145 30.976183 L 104.604752 66.000705 L 96.400633 66.000705 L 77.632239 30.976183 Z M 155.743105 50.161652 L 130.340758 50.161652 C 130.340758 52.619944 131.135655 54.440356 132.720541 55.632701 C 134.325055 56.810325 136.057145 57.399138 137.921717 57.399138 C 139.879518 57.399138 141.425151 57.139079 142.558615 56.614055 C 143.692078 56.093937 144.992372 55.053702 146.459496 53.498256 L 155.193546 57.880001 C 151.547816 63.974209 145.492863 67.016406 137.023778 67.016406 C 131.744094 67.016406 127.215146 65.210715 123.436933 61.599332 C 119.658721 57.978136 117.769614 53.620925 117.769614 48.527698 C 117.769614 43.429565 119.658721 39.057633 123.436933 35.411903 C 127.215146 31.766173 131.744094 29.940855 137.023778 29.940855 C 142.578242 29.940855 147.097376 31.550275 150.576276 34.759303 C 154.064989 37.973237 155.811799 42.55616 155.811799 48.512978 C 155.811799 49.337315 155.787265 49.886873 155.743105 50.161652 Z M 130.674419 43.463912 L 143.991391 43.463912 C 143.711705 41.638594 142.995317 40.240164 141.842226 39.263717 C 140.684229 38.282363 139.197477 37.796593 137.372159 37.796593 C 135.375104 37.796593 133.780404 38.321617 132.588059 39.376573 C 131.410434 40.421715 130.772554 41.785797 130.674419 43.463912 Z M 182.220033 30.976183 L 196.155259 30.976183 L 168.633188 83.753397 L 154.697963 83.753397 L 166.783336 60.534563 L 150.193548 30.976183 L 164.133681 30.976183 L 173.883432 48.930053 Z M 228.510498 50.161652 L 203.108152 50.161652 C 203.108152 52.619944 203.903048 54.440356 205.492842 55.632701 C 207.092449 56.810325 208.824538 57.399138 210.689111 57.399138 C 212.646912 57.399138 214.192544 57.139079 215.326008 56.614055 C 216.459472 56.093937 217.759766 55.053702 219.22689 53.498256 L 227.96094 57.880001 C 224.31521 63.974209 218.260256 67.016406 209.791172 67.016406 C 204.511488 67.016406 199.982539 65.210715 196.204327 61.599332 C 192.426114 57.978136 190.537008 53.620925 190.537008 48.527698 C 190.537008 43.429565 192.426114 39.057633 196.204327 35.411903 C 199.982539 31.766173 204.511488 29.940855 209.791172 29.940855 C 215.345635 29.940855 219.86477 31.550275 223.343669 34.759303 C 226.832383 37.973237 228.579193 42.55616 228.579193 48.512978 C 228.579193 49.337315 228.554659 49.886873 228.510498 50.161652 Z M 203.441812 43.463912 L 216.758785 43.463912 C 216.479099 41.638594 215.76271 40.240164 214.60962 39.263717 C 213.451622 38.282363 211.964871 37.796593 210.139552 37.796593 C 208.142497 37.796593 206.547797 38.321617 205.355452 39.376573 C 204.177827 40.421715 203.539947 41.785797 203.441812 43.463912 Z M 230.483019 30.976183 L 230.483019 17.924176 L 242.568393 17.924176 L 242.568393 30.976183 L 249.933454 30.976183 L 249.933454 40.196003 L 242.568393 40.196003 L 242.568393 51.314743 C 242.568393 54.548304 243.471238 56.162632 245.286743 56.162632 C 245.738166 56.162632 246.219029 56.07431 246.71952 55.897666 C 247.229824 55.711209 247.617459 55.524752 247.887331 55.348108 L 248.2995 55.083142 L 251.302443 64.832894 C 248.701855 66.290204 245.738166 67.016406 242.416283 67.016406 C 240.149355 67.016406 238.196461 66.623865 236.547787 65.833875 C 234.913832 65.034071 233.677326 63.959489 232.833362 62.615034 C 231.989398 61.270579 231.380958 59.862336 231.01295 58.380492 C 230.659663 56.903554 230.483019 55.323574 230.483019 53.645459 L 230.483019 40.196003 L 225.429047 40.196003 L 225.429047 30.976183 Z M 230.483019 30.976183 " stroke="#ad5f57" stroke-width="2.987495" stroke-opacity="1" stroke-miterlimit="4"/><path stroke-linecap="butt" transform="matrix(0.75, 0, 0, 0.75, 0, 61.799999)" fill="none" stroke-linejoin="miter" d="M 0 5.001043 L 85.682295 5.001043 " stroke="#be5b50" stroke-width="10" stroke-opacity="1" stroke-miterlimit="4"/><path stroke-linecap="butt" transform="matrix(0, 0.75, -0.75, 0, 7.551183, 2.041802)" fill="none" stroke-linejoin="miter" d="M 0.00155527 5.000536 L 83.68385 5.000536 " stroke="#be5b50" stroke-width="10" stroke-opacity="1" stroke-miterlimit="4"/><path stroke-linecap="butt" transform="matrix(-0.75, 0, 0, -0.75, 221.992256, 9.000002)" fill="none" stroke-linejoin="miter" d="M 0.0000907338 5.000002 L 85.682386 5.000002 " stroke="#be5b50" stroke-width="10" stroke-opacity="1" stroke-miterlimit="4"/><path stroke-linecap="butt" transform="matrix(0, -0.75, 0.75, 0, 215.245685, 69.958204)" fill="none" stroke-linejoin="miter" d="M 0.00156351 5.000545 L 83.683859 5.000545 " stroke="#be5b50" stroke-width="10" stroke-opacity="1" stroke-miterlimit="4"/></svg>