<svg xmlns="http://www.w3.org/2000/svg" xmlns:xlink="http://www.w3.org/1999/xlink" width="296" zoomAndPan="magnify" viewBox="0 0 222 72" height="96" preserveAspectRatio="xMidYMid meet" version="1.2"><defs/><g id="401145c679"><g style="fill:#ffffff;fill-opacity:1;"><g transform="translate(21.039683, 52.24226)"><path style="stroke:none" d="M 10.101562 -30.878906 L 10.101562 -6.175781 L 9.28125 -6.175781 L 9.28125 -6.996094 L 20.730469 -6.996094 L 20.730469 0.820312 L 1.425781 0.820312 L 1.425781 -31.695312 L 10.101562 -31.695312 Z M 8.464844 -30.878906 L 9.28125 -30.878906 L 9.28125 -30.058594 L 2.246094 -30.058594 L 2.246094 -30.878906 L 3.0625 -30.878906 L 3.0625 0 L 2.246094 0 L 2.246094 -0.820312 L 19.910156 -0.820312 L 19.910156 0 L 19.09375 0 L 19.09375 -6.175781 L 19.910156 -6.175781 L 19.910156 -5.355469 L 8.464844 -5.355469 Z M 8.464844 -30.878906 "/></g></g><g style="fill:#ffffff;fill-opacity:1;"><g transform="translate(46.261286, 52.24226)"><path style="stroke:none" d="M 1.425781 -31.695312 L 10.101562 -31.695312 L 10.101562 0.820312 L 1.425781 0.820312 Z M 3.0625 -30.058594 L 3.0625 -0.820312 L 8.464844 -0.820312 L 8.464844 -30.058594 Z M 3.0625 -30.058594 "/></g></g><g style="fill:#ffffff;fill-opacity:1;"><g transform="translate(61.866307, 52.24226)"><path style="stroke:none" d="M 11.148438 0.316406 L -2.277344 -31.695312 L 7.449219 -31.695312 L 15.4375 -10.886719 L 14.671875 -10.59375 L 13.90625 -10.886719 L 21.894531 -31.695312 L 31.621094 -31.695312 L 17.984375 0.820312 L 11.355469 0.820312 Z M 12.65625 -0.316406 L 11.902344 0 L 11.902344 -0.820312 L 17.441406 -0.820312 L 17.441406 0 L 16.6875 -0.316406 L 29.636719 -31.195312 L 30.390625 -30.878906 L 30.390625 -30.058594 L 22.457031 -30.058594 L 22.457031 -30.878906 L 23.21875 -30.582031 L 14.671875 -8.304688 L 6.121094 -30.582031 L 6.886719 -30.878906 L 6.886719 -30.058594 L -1.046875 -30.058594 L -1.046875 -30.878906 L -0.292969 -31.195312 Z M 12.65625 -0.316406 "/></g></g><g style="fill:#ffffff;fill-opacity:1;"><g transform="translate(95.282588, 52.24226)"><path style="stroke:none" d="M 20.730469 -30.878906 L 20.730469 -23.882812 L 9.28125 -23.882812 L 9.28125 -24.703125 L 10.101562 -24.703125 L 10.101562 -18.5625 L 9.28125 -18.5625 L 9.28125 -19.382812 L 20.28125 -19.382812 L 20.28125 -11.570312 L 9.28125 -11.570312 L 9.28125 -12.386719 L 10.101562 -12.386719 L 10.101562 -6.175781 L 9.28125 -6.175781 L 9.28125 -6.996094 L 20.730469 -6.996094 L 20.730469 0.820312 L 1.425781 0.820312 L 1.425781 -31.695312 L 20.730469 -31.695312 Z M 19.09375 -30.878906 L 19.910156 -30.878906 L 19.910156 -30.058594 L 2.246094 -30.058594 L 2.246094 -30.878906 L 3.0625 -30.878906 L 3.0625 0 L 2.246094 0 L 2.246094 -0.820312 L 19.910156 -0.820312 L 19.910156 0 L 19.09375 0 L 19.09375 -6.175781 L 19.910156 -6.175781 L 19.910156 -5.355469 L 8.464844 -5.355469 L 8.464844 -13.207031 L 19.460938 -13.207031 L 19.460938 -12.386719 L 18.644531 -12.386719 L 18.644531 -18.5625 L 19.460938 -18.5625 L 19.460938 -17.746094 L 8.464844 -17.746094 L 8.464844 -25.519531 L 19.910156 -25.519531 L 19.910156 -24.703125 L 19.09375 -24.703125 Z M 19.09375 -30.878906 "/></g></g><g style="fill:#ffffff;fill-opacity:1;"><g transform="translate(121.06548, 52.24226)"><path style="stroke:none" d="M -1.121094 -31.695312 L 7.78125 -31.695312 L 14.460938 -21.445312 L 13.773438 -20.996094 L 13.085938 -21.445312 L 19.765625 -31.695312 L 30.199219 -31.695312 L 17.972656 -13.394531 L 17.292969 -13.847656 L 18.109375 -13.847656 L 18.109375 0.820312 L 9.4375 0.820312 L 9.4375 -13.847656 L 10.253906 -13.847656 L 9.574219 -13.394531 L -2.65625 -31.695312 Z M -1.121094 -30.058594 L -1.121094 -30.878906 L -0.441406 -31.332031 L 11.074219 -14.097656 L 11.074219 0 L 10.253906 0 L 10.253906 -0.820312 L 17.292969 -0.820312 L 17.292969 0 L 16.472656 0 L 16.472656 -14.097656 L 27.988281 -31.332031 L 28.667969 -30.878906 L 28.667969 -30.058594 L 20.210938 -30.058594 L 20.210938 -30.878906 L 20.898438 -30.429688 L 13.773438 -19.496094 L 6.648438 -30.429688 L 7.335938 -30.878906 L 7.335938 -30.058594 Z M -1.121094 -30.058594 "/></g></g><g style="fill:#ffffff;fill-opacity:1;"><g transform="translate(152.685676, 52.24226)"><path style="stroke:none" d="M 20.730469 -30.878906 L 20.730469 -23.882812 L 9.28125 -23.882812 L 9.28125 -24.703125 L 10.101562 -24.703125 L 10.101562 -18.5625 L 9.28125 -18.5625 L 9.28125 -19.382812 L 20.28125 -19.382812 L 20.28125 -11.570312 L 9.28125 -11.570312 L 9.28125 -12.386719 L 10.101562 -12.386719 L 10.101562 -6.175781 L 9.28125 -6.175781 L 9.28125 -6.996094 L 20.730469 -6.996094 L 20.730469 0.820312 L 1.425781 0.820312 L 1.425781 -31.695312 L 20.730469 -31.695312 Z M 19.09375 -30.878906 L 19.910156 -30.878906 L 19.910156 -30.058594 L 2.246094 -30.058594 L 2.246094 -30.878906 L 3.0625 -30.878906 L 3.0625 0 L 2.246094 0 L 2.246094 -0.820312 L 19.910156 -0.820312 L 19.910156 0 L 19.09375 0 L 19.09375 -6.175781 L 19.910156 -6.175781 L 19.910156 -5.355469 L 8.464844 -5.355469 L 8.464844 -13.207031 L 19.460938 -13.207031 L 19.460938 -12.386719 L 18.644531 -12.386719 L 18.644531 -18.5625 L 19.460938 -18.5625 L 19.460938 -17.746094 L 8.464844 -17.746094 L 8.464844 -25.519531 L 19.910156 -25.519531 L 19.910156 -24.703125 L 19.09375 -24.703125 Z M 19.09375 -30.878906 "/></g></g><g style="fill:#ffffff;fill-opacity:1;"><g transform="translate(178.468567, 52.24226)"><path style="stroke:none" d="M -0.519531 -24.703125 L -0.519531 -31.695312 L 22.824219 -31.695312 L 22.824219 -23.882812 L 14.671875 -23.882812 L 14.671875 -24.703125 L 15.488281 -24.703125 L 15.488281 0.820312 L 6.816406 0.820312 L 6.816406 -24.703125 L 7.636719 -24.703125 L 7.636719 -23.882812 L -0.519531 -23.882812 Z M 1.117188 -24.703125 L 0.300781 -24.703125 L 0.300781 -25.519531 L 8.453125 -25.519531 L 8.453125 0 L 7.636719 0 L 7.636719 -0.820312 L 14.671875 -0.820312 L 14.671875 0 L 13.851562 0 L 13.851562 -25.519531 L 22.007812 -25.519531 L 22.007812 -24.703125 L 21.1875 -24.703125 L 21.1875 -30.878906 L 22.007812 -30.878906 L 22.007812 -30.058594 L 0.300781 -30.058594 L 0.300781 -30.878906 L 1.117188 -30.878906 Z M 1.117188 -24.703125 "/></g></g><path style="fill:none;stroke-width:10;stroke-linecap:butt;stroke-linejoin:miter;stroke:#ffffff;stroke-opacity:1;stroke-miterlimit:4;" d="M 0.00136013 5.001093 L 83.136795 5.001093 " transform="matrix(0,0.748872,-0.748872,0,7.495179,3.288044)"/><path style="fill:none;stroke-width:10;stroke-linecap:butt;stroke-linejoin:miter;stroke:#ffffff;stroke-opacity:1;stroke-miterlimit:4;" d="M 0 5.001367 L 85.12503 5.001367 " transform="matrix(0.749036,0,0,0.749036,0,61.886608)"/><path style="fill:none;stroke-width:10;stroke-linecap:butt;stroke-linejoin:miter;stroke:#ffffff;stroke-opacity:1;stroke-miterlimit:4;" d="M 0.00127831 5.000141 L 85.126308 5.000141 " transform="matrix(-0.749036,0,0,-0.749036,221.989239,9.479661)"/><path style="fill:none;stroke-width:10;stroke-linecap:butt;stroke-linejoin:miter;stroke:#ffffff;stroke-opacity:1;stroke-miterlimit:4;" d="M -0.000145709 4.998193 L 83.135289 4.998193 " transform="matrix(0,-0.748872,0.748872,0,214.647617,70.015516)"/></g></svg>