<svg xmlns="http://www.w3.org/2000/svg" xmlns:xlink="http://www.w3.org/1999/xlink" width="400" zoomAndPan="magnify" viewBox="0 0 300 89.999999" height="120" preserveAspectRatio="xMidYMid meet" version="1.0"><defs><g/><clipPath id="94bc1b4763"><path d="M 59 66 L 75 66 L 75 81.75 L 59 81.75 Z M 59 66 " clip-rule="nonzero"/></clipPath><clipPath id="e3b879735f"><path d="M 28 66 L 45 66 L 45 81.75 L 28 81.75 Z M 28 66 " clip-rule="nonzero"/></clipPath><clipPath id="6c4a6bc7a1"><path d="M 10.773438 15 L 75 15 L 75 64 L 10.773438 64 Z M 10.773438 15 " clip-rule="nonzero"/></clipPath><clipPath id="2f4240867b"><path d="M 50 9 L 83.523438 9 L 83.523438 43 L 50 43 Z M 50 9 " clip-rule="nonzero"/></clipPath><clipPath id="cae5251d6a"><path d="M 49.59375 9 L 84.355469 9 L 84.355469 42.964844 L 49.59375 42.964844 Z M 49.59375 9 " clip-rule="nonzero"/></clipPath><clipPath id="a87f82bbc1"><path d="M 66.964844 9 C 57.371094 9 49.59375 16.605469 49.59375 25.984375 C 49.59375 35.363281 57.371094 42.964844 66.964844 42.964844 C 76.5625 42.964844 84.339844 35.363281 84.339844 25.984375 C 84.339844 16.605469 76.5625 9 66.964844 9 Z M 66.964844 9 " clip-rule="nonzero"/></clipPath><clipPath id="bf968daa55"><path d="M 56.363281 17.828125 L 75.863281 17.828125 L 75.863281 32.828125 L 56.363281 32.828125 Z M 56.363281 17.828125 " clip-rule="nonzero"/></clipPath></defs><rect x="-30" width="360" fill="#ffffff" y="-9" height="107.999999" fill-opacity="1"/><rect x="-30" width="360" fill="#ffffff" y="-9" height="107.999999" fill-opacity="1"/><g clip-path="url(#94bc1b4763)"><path fill="#053262" d="M 74.472656 74.214844 C 74.472656 74.710938 74.421875 75.203125 74.324219 75.691406 C 74.230469 76.179688 74.085938 76.65625 73.894531 77.117188 C 73.703125 77.574219 73.46875 78.011719 73.195312 78.425781 C 72.917969 78.839844 72.601562 79.222656 72.25 79.574219 C 71.898438 79.929688 71.515625 80.242188 71.101562 80.519531 C 70.6875 80.796875 70.25 81.027344 69.789062 81.21875 C 69.332031 81.410156 68.855469 81.554688 68.367188 81.652344 C 67.878906 81.75 67.386719 81.796875 66.890625 81.796875 C 66.390625 81.796875 65.898438 81.75 65.410156 81.652344 C 64.921875 81.554688 64.445312 81.410156 63.988281 81.21875 C 63.527344 81.027344 63.089844 80.796875 62.675781 80.519531 C 62.261719 80.242188 61.878906 79.929688 61.527344 79.574219 C 61.175781 79.222656 60.859375 78.839844 60.582031 78.425781 C 60.308594 78.011719 60.074219 77.574219 59.882812 77.117188 C 59.691406 76.65625 59.546875 76.179688 59.453125 75.691406 C 59.355469 75.203125 59.304688 74.710938 59.304688 74.214844 C 59.304688 73.714844 59.355469 73.222656 59.453125 72.734375 C 59.546875 72.246094 59.691406 71.773438 59.882812 71.3125 C 60.074219 70.851562 60.308594 70.414062 60.582031 70 C 60.859375 69.585938 61.175781 69.203125 61.527344 68.851562 C 61.878906 68.5 62.261719 68.183594 62.675781 67.910156 C 63.089844 67.632812 63.527344 67.398438 63.988281 67.207031 C 64.445312 67.015625 64.921875 66.875 65.410156 66.777344 C 65.898438 66.679688 66.390625 66.632812 66.890625 66.632812 C 67.386719 66.632812 67.878906 66.679688 68.367188 66.777344 C 68.855469 66.875 69.332031 67.015625 69.789062 67.207031 C 70.25 67.398438 70.6875 67.632812 71.101562 67.910156 C 71.515625 68.183594 71.898438 68.5 72.25 68.851562 C 72.601562 69.203125 72.917969 69.585938 73.195312 70 C 73.46875 70.414062 73.703125 70.851562 73.894531 71.3125 C 74.085938 71.773438 74.230469 72.246094 74.324219 72.734375 C 74.421875 73.222656 74.472656 73.714844 74.472656 74.214844 Z M 74.472656 74.214844 " fill-opacity="1" fill-rule="nonzero"/></g><g clip-path="url(#e3b879735f)"><path fill="#053262" d="M 44.140625 74.214844 C 44.140625 74.710938 44.089844 75.203125 43.992188 75.691406 C 43.898438 76.179688 43.753906 76.65625 43.5625 77.117188 C 43.371094 77.574219 43.136719 78.011719 42.863281 78.425781 C 42.585938 78.839844 42.269531 79.222656 41.917969 79.574219 C 41.566406 79.929688 41.183594 80.242188 40.769531 80.519531 C 40.355469 80.796875 39.917969 81.027344 39.457031 81.21875 C 39 81.410156 38.523438 81.554688 38.035156 81.652344 C 37.546875 81.75 37.054688 81.796875 36.558594 81.796875 C 36.058594 81.796875 35.566406 81.75 35.078125 81.652344 C 34.589844 81.554688 34.113281 81.410156 33.65625 81.21875 C 33.195312 81.027344 32.757812 80.796875 32.34375 80.519531 C 31.929688 80.242188 31.546875 79.929688 31.195312 79.574219 C 30.84375 79.222656 30.527344 78.839844 30.25 78.425781 C 29.976562 78.011719 29.742188 77.574219 29.550781 77.117188 C 29.359375 76.65625 29.214844 76.179688 29.121094 75.691406 C 29.023438 75.203125 28.972656 74.710938 28.972656 74.214844 C 28.972656 73.714844 29.023438 73.222656 29.121094 72.734375 C 29.214844 72.246094 29.359375 71.773438 29.550781 71.3125 C 29.742188 70.851562 29.976562 70.414062 30.25 70 C 30.527344 69.585938 30.84375 69.203125 31.195312 68.851562 C 31.546875 68.5 31.929688 68.183594 32.34375 67.910156 C 32.757812 67.632812 33.195312 67.398438 33.65625 67.207031 C 34.113281 67.015625 34.589844 66.875 35.078125 66.777344 C 35.566406 66.679688 36.058594 66.632812 36.558594 66.632812 C 37.054688 66.632812 37.546875 66.679688 38.035156 66.777344 C 38.523438 66.875 39 67.015625 39.457031 67.207031 C 39.917969 67.398438 40.355469 67.632812 40.769531 67.910156 C 41.183594 68.183594 41.566406 68.5 41.917969 68.851562 C 42.269531 69.203125 42.585938 69.585938 42.863281 70 C 43.136719 70.414062 43.371094 70.851562 43.5625 71.3125 C 43.753906 71.773438 43.898438 72.246094 43.992188 72.734375 C 44.089844 73.222656 44.140625 73.714844 44.140625 74.214844 Z M 44.140625 74.214844 " fill-opacity="1" fill-rule="nonzero"/></g><g clip-path="url(#6c4a6bc7a1)"><path fill="#053262" d="M 72.957031 63.597656 L 37.949219 63.597656 C 32.90625 63.597656 28.527344 60.007812 27.539062 55.066406 L 20.148438 18.101562 L 12.292969 18.101562 C 11.453125 18.101562 10.773438 17.421875 10.773438 16.582031 C 10.773438 15.746094 11.453125 15.066406 12.292969 15.066406 L 21.390625 15.066406 C 22.113281 15.066406 22.734375 15.574219 22.875 16.285156 L 30.515625 54.46875 C 31.222656 58 34.34375 60.566406 37.949219 60.566406 L 72.957031 60.566406 C 73.792969 60.566406 74.472656 61.242188 74.472656 62.082031 C 74.472656 62.917969 73.792969 63.597656 72.957031 63.597656 Z M 72.957031 63.597656 " fill-opacity="1" fill-rule="nonzero"/></g><path fill="#053262" d="M 77.421875 43.210938 C 76.96875 42.945312 76.414062 42.925781 75.949219 43.171875 C 73.113281 44.648438 70.066406 45.398438 66.890625 45.398438 C 56.019531 45.398438 47.183594 37.179688 47.199219 26.058594 C 47.199219 26.039062 47.214844 25.746094 47.21875 25.726562 C 47.230469 25.308594 47.070312 24.90625 46.777344 24.613281 C 46.476562 24.316406 46.070312 24.15625 45.65625 24.167969 L 24.378906 24.167969 C 23.933594 24.179688 23.519531 24.386719 23.242188 24.734375 C 22.964844 25.074219 22.851562 25.523438 22.933594 25.960938 L 27.484375 50.226562 C 27.617188 50.945312 28.242188 51.464844 28.972656 51.464844 L 70.632812 51.464844 C 74.449219 51.464844 77.683594 48.609375 78.152344 44.820312 C 78.164062 44.746094 78.164062 44.554688 78.164062 44.480469 C 78.152344 43.957031 77.867188 43.476562 77.421875 43.210938 Z M 77.421875 43.210938 " fill-opacity="1" fill-rule="nonzero"/><g clip-path="url(#2f4240867b)"><path fill="#053262" d="M 66.890625 9 C 57.6875 9 50.207031 16.484375 50.207031 25.683594 C 50.207031 34.882812 57.6875 42.367188 66.890625 42.367188 C 76.089844 42.367188 83.570312 34.882812 83.570312 25.683594 C 83.570312 16.484375 76.089844 9 66.890625 9 Z M 77.0625 20.691406 L 64.929688 32.824219 C 64.632812 33.117188 64.242188 33.265625 63.855469 33.265625 C 63.46875 33.265625 63.078125 33.117188 62.78125 32.824219 L 56.714844 26.757812 C 56.125 26.164062 56.125 25.203125 56.714844 24.613281 C 57.308594 24.019531 58.269531 24.019531 58.859375 24.613281 L 63.855469 29.605469 L 74.914062 18.546875 C 75.507812 17.953125 76.46875 17.953125 77.058594 18.546875 C 77.652344 19.136719 77.652344 20.09375 77.0625 20.691406 Z M 77.0625 20.691406 " fill-opacity="1" fill-rule="nonzero"/></g><g clip-path="url(#cae5251d6a)"><g clip-path="url(#a87f82bbc1)"><path fill="#00bf63" d="M 49.59375 9 L 84.355469 9 L 84.355469 42.964844 L 49.59375 42.964844 Z M 49.59375 9 " fill-opacity="1" fill-rule="nonzero"/></g></g><g clip-path="url(#bf968daa55)"><path fill="#ffffff" d="M 74.585938 17.839844 C 74.277344 17.847656 74.019531 17.960938 73.804688 18.183594 L 62.144531 29.84375 L 58.414062 26.113281 C 58.308594 26.003906 58.183594 25.917969 58.042969 25.859375 C 57.90625 25.796875 57.757812 25.765625 57.605469 25.765625 C 57.453125 25.761719 57.308594 25.792969 57.167969 25.847656 C 57.027344 25.90625 56.902344 25.988281 56.792969 26.097656 C 56.6875 26.203125 56.601562 26.328125 56.546875 26.46875 C 56.488281 26.609375 56.460938 26.757812 56.460938 26.910156 C 56.464844 27.0625 56.496094 27.207031 56.554688 27.347656 C 56.613281 27.488281 56.699219 27.609375 56.808594 27.714844 L 61.34375 32.246094 C 61.449219 32.355469 61.570312 32.433594 61.710938 32.492188 C 61.847656 32.550781 61.992188 32.578125 62.144531 32.578125 C 62.292969 32.578125 62.4375 32.550781 62.578125 32.492188 C 62.714844 32.433594 62.839844 32.355469 62.945312 32.246094 L 75.40625 19.785156 C 75.574219 19.621094 75.683594 19.425781 75.730469 19.195312 C 75.773438 18.96875 75.753906 18.746094 75.660156 18.53125 C 75.570312 18.316406 75.425781 18.144531 75.230469 18.019531 C 75.035156 17.890625 74.816406 17.832031 74.585938 17.839844 Z M 74.585938 17.839844 " fill-opacity="1" fill-rule="nonzero"/></g><g fill="#053262" fill-opacity="1"><g transform="translate(91.464496, 55.402528)"><g><path d="M 9.09375 0.515625 C 7.507812 0.515625 5.957031 0.0625 4.4375 -0.84375 L 2.265625 0.25 L 1.703125 0.25 L 1.703125 -6.296875 L 2.265625 -6.296875 L 4.453125 -1.546875 C 5.867188 -0.546875 7.484375 -0.046875 9.296875 -0.046875 C 10.785156 -0.046875 12.019531 -0.441406 13 -1.234375 C 13.976562 -2.023438 14.46875 -3.132812 14.46875 -4.5625 C 14.46875 -5.59375 14.148438 -6.410156 13.515625 -7.015625 C 12.890625 -7.617188 11.875 -8.097656 10.46875 -8.453125 L 6.234375 -9.546875 C 4.765625 -9.941406 3.65625 -10.609375 2.90625 -11.546875 C 2.15625 -12.492188 1.78125 -13.613281 1.78125 -14.90625 C 1.78125 -16.070312 2.015625 -17.109375 2.484375 -18.015625 C 2.953125 -18.921875 3.632812 -19.625 4.53125 -20.125 C 5.4375 -20.632812 6.507812 -20.890625 7.75 -20.890625 C 9.289062 -20.890625 10.671875 -20.625 11.890625 -20.09375 L 13.75 -20.890625 L 14.3125 -20.890625 L 14.3125 -15.6875 L 13.75 -15.6875 L 11.921875 -19.40625 C 10.648438 -20.019531 9.265625 -20.328125 7.765625 -20.328125 C 6.285156 -20.328125 5.117188 -19.945312 4.265625 -19.1875 C 3.421875 -18.4375 3 -17.441406 3 -16.203125 C 3 -15.285156 3.300781 -14.5625 3.90625 -14.03125 C 4.507812 -13.507812 5.398438 -13.09375 6.578125 -12.78125 L 11.125 -11.59375 C 12.601562 -11.21875 13.703125 -10.570312 14.421875 -9.65625 C 15.148438 -8.75 15.515625 -7.375 15.515625 -5.53125 C 15.515625 -3.644531 14.929688 -2.164062 13.765625 -1.09375 C 12.597656 -0.0195312 11.039062 0.515625 9.09375 0.515625 Z M 9.09375 0.515625 "/></g></g></g><g fill="#053262" fill-opacity="1"><g transform="translate(109.627013, 55.402528)"><g><path d="M 5.171875 0 L 5.171875 -0.53125 L 7.515625 -0.921875 L 7.515625 -19.734375 L 3.3125 -19.734375 L 1.375 -14.703125 L 0.640625 -14.703125 L 0.640625 -20.375 L 17.21875 -20.375 L 17.21875 -14.703125 L 16.453125 -14.703125 L 14.546875 -19.734375 L 10.3125 -19.734375 L 10.3125 -0.921875 L 12.65625 -0.53125 L 12.65625 0 Z M 5.171875 0 "/></g></g></g><g fill="#053262" fill-opacity="1"><g transform="translate(128.655605, 55.402528)"><g><path d="M 4.984375 0 L 4.984375 -0.53125 L 7.359375 -0.921875 L 7.359375 -8.65625 L 1.171875 -19.453125 L -0.84375 -19.8125 L -0.84375 -20.375 L 6.828125 -20.375 L 6.828125 -19.8125 L 4.453125 -19.453125 L 9.8125 -10.21875 L 14.71875 -18.59375 L 11.671875 -19.8125 L 11.671875 -20.375 L 17.375 -20.375 L 17.375 -19.8125 L 15.40625 -18.5625 L 10.109375 -9.5 L 10.109375 -0.921875 L 12.484375 -0.53125 L 12.484375 0 Z M 4.984375 0 "/></g></g></g><g fill="#053262" fill-opacity="1"><g transform="translate(146.588873, 55.402528)"><g><path d="M 1.015625 0 L 1.015625 -0.53125 L 3.359375 -0.921875 L 3.359375 -19.453125 L 1.015625 -19.8125 L 1.015625 -20.375 L 8.5 -20.375 L 8.5 -19.8125 L 6.15625 -19.453125 L 6.15625 -0.609375 L 13.78125 -0.609375 L 15.859375 -6.21875 L 16.5625 -6.21875 L 16.5625 0 Z M 1.015625 0 "/></g></g></g><g fill="#053262" fill-opacity="1"><g transform="translate(164.980653, 55.402528)"><g><path d="M 1.015625 0 L 1.015625 -0.53125 L 3.359375 -0.921875 L 3.359375 -19.453125 L 1.015625 -19.8125 L 1.015625 -20.375 L 16.34375 -20.375 L 16.34375 -14.546875 L 15.65625 -14.546875 L 13.703125 -19.734375 L 6.15625 -19.734375 L 6.15625 -10.5625 L 9.46875 -10.5625 L 10.984375 -14.265625 L 11.640625 -14.265625 L 11.640625 -6.21875 L 10.984375 -6.21875 L 9.453125 -9.953125 L 6.15625 -9.953125 L 6.15625 -0.609375 L 14.15625 -0.609375 L 16.25 -6.21875 L 16.90625 -6.21875 L 16.90625 0 Z M 1.015625 0 "/></g></g></g><g fill="#053262" fill-opacity="1"><g transform="translate(184.544173, 55.402528)"><g/></g></g><g fill="#053262" fill-opacity="1"><g transform="translate(191.829837, 55.402528)"><g><path d="M 9.09375 0.515625 C 7.507812 0.515625 5.957031 0.0625 4.4375 -0.84375 L 2.265625 0.25 L 1.703125 0.25 L 1.703125 -6.296875 L 2.265625 -6.296875 L 4.453125 -1.546875 C 5.867188 -0.546875 7.484375 -0.046875 9.296875 -0.046875 C 10.785156 -0.046875 12.019531 -0.441406 13 -1.234375 C 13.976562 -2.023438 14.46875 -3.132812 14.46875 -4.5625 C 14.46875 -5.59375 14.148438 -6.410156 13.515625 -7.015625 C 12.890625 -7.617188 11.875 -8.097656 10.46875 -8.453125 L 6.234375 -9.546875 C 4.765625 -9.941406 3.65625 -10.609375 2.90625 -11.546875 C 2.15625 -12.492188 1.78125 -13.613281 1.78125 -14.90625 C 1.78125 -16.070312 2.015625 -17.109375 2.484375 -18.015625 C 2.953125 -18.921875 3.632812 -19.625 4.53125 -20.125 C 5.4375 -20.632812 6.507812 -20.890625 7.75 -20.890625 C 9.289062 -20.890625 10.671875 -20.625 11.890625 -20.09375 L 13.75 -20.890625 L 14.3125 -20.890625 L 14.3125 -15.6875 L 13.75 -15.6875 L 11.921875 -19.40625 C 10.648438 -20.019531 9.265625 -20.328125 7.765625 -20.328125 C 6.285156 -20.328125 5.117188 -19.945312 4.265625 -19.1875 C 3.421875 -18.4375 3 -17.441406 3 -16.203125 C 3 -15.285156 3.300781 -14.5625 3.90625 -14.03125 C 4.507812 -13.507812 5.398438 -13.09375 6.578125 -12.78125 L 11.125 -11.59375 C 12.601562 -11.21875 13.703125 -10.570312 14.421875 -9.65625 C 15.148438 -8.75 15.515625 -7.375 15.515625 -5.53125 C 15.515625 -3.644531 14.929688 -2.164062 13.765625 -1.09375 C 12.597656 -0.0195312 11.039062 0.515625 9.09375 0.515625 Z M 9.09375 0.515625 "/></g></g></g><g fill="#053262" fill-opacity="1"><g transform="translate(209.99235, 55.402528)"><g><path d="M 5.171875 0 L 5.171875 -0.53125 L 7.515625 -0.921875 L 7.515625 -19.734375 L 3.3125 -19.734375 L 1.375 -14.703125 L 0.640625 -14.703125 L 0.640625 -20.375 L 17.21875 -20.375 L 17.21875 -14.703125 L 16.453125 -14.703125 L 14.546875 -19.734375 L 10.3125 -19.734375 L 10.3125 -0.921875 L 12.65625 -0.53125 L 12.65625 0 Z M 5.171875 0 "/></g></g></g><g fill="#053262" fill-opacity="1"><g transform="translate(229.020938, 55.402528)"><g><path d="M 10.984375 0.515625 C 9.128906 0.515625 7.472656 0.0664062 6.015625 -0.828125 C 4.554688 -1.734375 3.414062 -3 2.59375 -4.625 C 1.78125 -6.25 1.375 -8.101562 1.375 -10.1875 C 1.375 -12.269531 1.78125 -14.125 2.59375 -15.75 C 3.414062 -17.375 4.554688 -18.632812 6.015625 -19.53125 C 7.472656 -20.4375 9.128906 -20.890625 10.984375 -20.890625 C 12.828125 -20.890625 14.476562 -20.4375 15.9375 -19.53125 C 17.40625 -18.632812 18.546875 -17.375 19.359375 -15.75 C 20.171875 -14.125 20.578125 -12.269531 20.578125 -10.1875 C 20.578125 -8.101562 20.171875 -6.25 19.359375 -4.625 C 18.546875 -3 17.40625 -1.734375 15.9375 -0.828125 C 14.476562 0.0664062 12.828125 0.515625 10.984375 0.515625 Z M 10.984375 -0.078125 C 12.203125 -0.078125 13.296875 -0.398438 14.265625 -1.046875 C 15.242188 -1.691406 16.015625 -2.628906 16.578125 -3.859375 C 17.140625 -5.085938 17.421875 -6.539062 17.421875 -8.21875 L 17.421875 -12.15625 C 17.421875 -13.832031 17.140625 -15.285156 16.578125 -16.515625 C 16.015625 -17.742188 15.242188 -18.679688 14.265625 -19.328125 C 13.296875 -19.972656 12.203125 -20.296875 10.984375 -20.296875 C 9.742188 -20.296875 8.640625 -19.972656 7.671875 -19.328125 C 6.703125 -18.679688 5.9375 -17.742188 5.375 -16.515625 C 4.8125 -15.285156 4.53125 -13.832031 4.53125 -12.15625 L 4.53125 -8.21875 C 4.53125 -6.539062 4.8125 -5.085938 5.375 -3.859375 C 5.9375 -2.628906 6.703125 -1.691406 7.671875 -1.046875 C 8.640625 -0.398438 9.742188 -0.078125 10.984375 -0.078125 Z M 10.984375 -0.078125 "/></g></g></g><g fill="#053262" fill-opacity="1"><g transform="translate(252.17611, 55.402528)"><g><path d="M 15.8125 0.25 C 14.863281 0.25 14.148438 0.0195312 13.671875 -0.4375 C 13.203125 -0.894531 12.878906 -1.675781 12.703125 -2.78125 L 12.21875 -6.1875 C 12.050781 -7.34375 11.65625 -8.242188 11.03125 -8.890625 C 10.414062 -9.546875 9.457031 -9.875 8.15625 -9.875 L 6.15625 -9.875 L 6.15625 -0.921875 L 8.5 -0.53125 L 8.5 0 L 1.015625 0 L 1.015625 -0.53125 L 3.359375 -0.921875 L 3.359375 -19.453125 L 1.015625 -19.8125 L 1.015625 -20.375 L 8.15625 -20.375 C 10.914062 -20.375 12.914062 -19.941406 14.15625 -19.078125 C 15.394531 -18.210938 16.015625 -16.894531 16.015625 -15.125 C 16.015625 -12.207031 14.25 -10.519531 10.71875 -10.0625 L 10.71875 -9.90625 C 12.03125 -9.71875 13.078125 -9.25 13.859375 -8.5 C 14.648438 -7.757812 15.148438 -6.769531 15.359375 -5.53125 L 15.6875 -3.34375 C 15.820312 -2.382812 15.976562 -1.734375 16.15625 -1.390625 C 16.332031 -1.054688 16.609375 -0.890625 16.984375 -0.890625 C 17.242188 -0.890625 17.515625 -0.96875 17.796875 -1.125 C 18.085938 -1.289062 18.363281 -1.5 18.625 -1.75 L 19.046875 -1.296875 C 18.554688 -0.734375 18.046875 -0.332031 17.515625 -0.09375 C 16.992188 0.132812 16.425781 0.25 15.8125 0.25 Z M 9.015625 -10.5 C 10.253906 -10.5 11.21875 -10.875 11.90625 -11.625 C 12.59375 -12.382812 12.9375 -13.5 12.9375 -14.96875 L 12.9375 -15.515625 C 12.9375 -18.328125 11.34375 -19.734375 8.15625 -19.734375 L 6.15625 -19.734375 L 6.15625 -10.5 Z M 9.015625 -10.5 "/></g></g></g><g fill="#053262" fill-opacity="1"><g transform="translate(271.892471, 55.402528)"><g><path d="M 1.015625 0 L 1.015625 -0.53125 L 3.359375 -0.921875 L 3.359375 -19.453125 L 1.015625 -19.8125 L 1.015625 -20.375 L 16.34375 -20.375 L 16.34375 -14.546875 L 15.65625 -14.546875 L 13.703125 -19.734375 L 6.15625 -19.734375 L 6.15625 -10.5625 L 9.46875 -10.5625 L 10.984375 -14.265625 L 11.640625 -14.265625 L 11.640625 -6.21875 L 10.984375 -6.21875 L 9.453125 -9.953125 L 6.15625 -9.953125 L 6.15625 -0.609375 L 14.15625 -0.609375 L 16.25 -6.21875 L 16.90625 -6.21875 L 16.90625 0 Z M 1.015625 0 "/></g></g></g></svg>