<svg xmlns="http://www.w3.org/2000/svg" xmlns:xlink="http://www.w3.org/1999/xlink" width="296" zoomAndPan="magnify" viewBox="0 0 222 72" height="96" preserveAspectRatio="xMidYMid meet" version="1.0"><path stroke-linecap="butt" transform="matrix(0.75, 0, 0, 0.75, 1.662652, 16.06777)" fill="none" stroke-linejoin="miter" d="M 37.366466 6.560682 L 37.366466 39.711725 L 51.626883 39.711725 L 51.626883 47.998184 L 27.923757 47.998184 L 27.923757 6.560682 Z M 71.215426 6.560682 L 71.215426 47.998184 L 61.772717 47.998184 L 61.772717 6.560682 Z M 95.678969 47.998184 L 78.288343 6.560682 L 88.944593 6.560682 L 99.39251 33.784641 L 109.840427 6.560682 L 120.486261 6.560682 L 103.11126 47.998184 Z M 151.267512 6.560682 L 151.267512 14.852349 L 137.007095 14.852349 L 137.007095 23.081516 L 150.668554 23.081516 L 150.668554 31.373183 L 137.007095 31.373183 L 137.007095 39.711725 L 151.267512 39.711725 L 151.267512 47.998184 L 127.564387 47.998184 L 127.564387 6.560682 Z M 157.642513 6.560682 L 168.99668 6.560682 L 177.632097 19.821099 L 186.272722 6.560682 L 197.632098 6.560682 L 182.350847 29.409641 L 182.350847 47.998184 L 172.908138 47.998184 L 172.908138 29.409641 Z M 228.309182 6.560682 L 228.309182 14.852349 L 214.043557 14.852349 L 214.043557 23.081516 L 227.705016 23.081516 L 227.705016 31.373183 L 214.043557 31.373183 L 214.043557 39.711725 L 228.309182 39.711725 L 228.309182 47.998184 L 204.600848 47.998184 L 204.600848 6.560682 Z M 236.595641 14.852349 L 236.595641 6.560682 L 265.720642 6.560682 L 265.720642 14.852349 L 255.8821 14.852349 L 255.8821 47.998184 L 246.439391 47.998184 L 246.439391 14.852349 Z M 236.595641 14.852349 " stroke="#ad5f57" stroke-width="2.197864" stroke-opacity="1" stroke-miterlimit="4"/><path stroke-linecap="butt" transform="matrix(0.75, 0, 0, 0.75, 0, 61.799999)" fill="none" stroke-linejoin="miter" d="M 0 5.001043 L 85.682295 5.001043 " stroke="#be5b50" stroke-width="10" stroke-opacity="1" stroke-miterlimit="4"/><path stroke-linecap="butt" transform="matrix(0, 0.75, -0.75, 0, 7.551183, 2.041802)" fill="none" stroke-linejoin="miter" d="M 0.00155527 5.000536 L 83.68385 5.000536 " stroke="#be5b50" stroke-width="10" stroke-opacity="1" stroke-miterlimit="4"/><path stroke-linecap="butt" transform="matrix(-0.75, 0, 0, -0.75, 221.992256, 9.000002)" fill="none" stroke-linejoin="miter" d="M 0.0000907338 5.000002 L 85.682386 5.000002 " stroke="#be5b50" stroke-width="10" stroke-opacity="1" stroke-miterlimit="4"/><path stroke-linecap="butt" transform="matrix(0, -0.75, 0.75, 0, 215.245685, 69.958204)" fill="none" stroke-linejoin="miter" d="M 0.00156351 5.000545 L 83.683859 5.000545 " stroke="#be5b50" stroke-width="10" stroke-opacity="1" stroke-miterlimit="4"/></svg>